<svg width="200" height="130" viewBox="0 0 200 130" fill="none" xmlns="http://www.w3.org/2000/svg">
  <!-- Card outline with hand-drawn effect -->
  <path d="M20,10 C18,10 10,11 10,20 C10,29 10,100 10,110 C10,120 18,120 20,120 C22,120 180,120 180,120 C182,120 190,119 190,110 C190,101 190,30 190,20 C190,10 182,10 180,10 C178,10 22,10 20,10 Z" stroke="#37352F" stroke-width="2" fill="none" stroke-linecap="round" stroke-dasharray="1 3"/>
  
  <!-- Photo area -->
  <rect x="30" y="40" width="50" height="60" stroke="#37352F" stroke-width="1.5" fill="none" stroke-dasharray="2 2"/>
  
  <!-- ID number -->
  <path d="M100,90 C100,90 170,90 170,90" stroke="#37352F" stroke-width="1.5" stroke-linecap="round"/>
  
  <!-- Name field -->
  <path d="M100,40 C100,40 170,40 170,40" stroke="#37352F" stroke-width="1.5" stroke-linecap="round"/>
  
  <!-- Address fields -->
  <path d="M100,55 C100,55 170,55 170,55" stroke="#37352F" stroke-width="1.5" stroke-linecap="round"/>
  <path d="M100,70 C100,70 150,70 150,70" stroke="#37352F" stroke-width="1.5" stroke-linecap="round"/>
  
  <!-- Emblem -->
  <circle cx="45" cy="25" r="10" stroke="#37352F" stroke-width="1" fill="none"/>
</svg>