<svg width="200" height="130" viewBox="0 0 200 130" fill="none" xmlns="http://www.w3.org/2000/svg">
  <!-- Card outline with hand-drawn effect -->
  <path d="M20,10 C18,10 10,11 10,20 C10,29 10,100 10,110 C10,120 18,120 20,120 C22,120 180,120 180,120 C182,120 190,119 190,110 C190,101 190,30 190,20 C190,10 182,10 180,10 C178,10 22,10 20,10 Z" stroke="#37352F" stroke-width="2" fill="none" stroke-linecap="round" stroke-dasharray="1 3"/>
  
  <!-- MRZ Zone (Machine Readable Zone) -->
  <rect x="30" y="80" width="140" height="25" stroke="#37352F" stroke-width="1" fill="none" stroke-dasharray="2 2"/>
  <path d="M35,87 C35,87 165,87 165,87" stroke="#37352F" stroke-width="1" stroke-linecap="round"/>
  <path d="M35,97 C35,97 165,97 165,97" stroke="#37352F" stroke-width="1" stroke-linecap="round"/>
  
  <!-- Signature area -->
  <path d="M30,50 C30,50 90,50 90,50" stroke="#37352F" stroke-width="1.5" stroke-linecap="round"/>
  <path d="M35,55 C40,60 45,45 50,55 C55,65 60,45 65,55 C70,65 75,45 80,55" stroke="#37352F" stroke-width="1" stroke-linecap="round"/>
  
  <!-- Additional info lines -->
  <path d="M110,30 C110,30 170,30 170,30" stroke="#37352F" stroke-width="1.5" stroke-linecap="round"/>
  <path d="M110,45 C110,45 170,45 170,45" stroke="#37352F" stroke-width="1.5" stroke-linecap="round"/>
  <path d="M110,60 C110,60 170,60 170,60" stroke="#37352F" stroke-width="1.5" stroke-linecap="round"/>
</svg>